<svg width="153" height="49" xmlns="http://www.w3.org/2000/svg"><g fill="none" fill-rule="evenodd"><path fill="#93C240" d="M1.617 1.937l15.191-.97.194 11.838 11.726-9.43 9.9 8.421-14.44 12.145L38.53 38.786 27.298 48.44 17.149 36.748V47.86L.947 47.722z"/><path fill="#FFB74A" d="M41.838 2.188L59.582.873l-.437 46.922-16.63-.065z"/><path fill="#FF5B4B" d="M110.3.335l-1.228 16.16 16.647.195-15.378 17.712-.493 13.275 42.592-.21.194-14.813-19.735-.2 19.443-16.025V.527z"/><path d="M63.853 3.04l.97 14.53 5.06-.582.524 30.001s5.128.115 16.694.115c11.566 0 20.519-11.03 20.128-24.496C106.84 9.142 95.872.891 86.284.891c-9.589 0-22.431 2.15-22.431 2.15zm19.126 11.937l.628 16.652s9.716 1.194 9.877-8.176c.162-9.37-10.505-8.476-10.505-8.476z" fill="#FF8A4D"/></g></svg>